HIERARCHY
ROOT Pelvis
{
	OFFSET 0.000000 0.000000 0.000000
	CHANNELS 6 Xposition Yposition Zposition Xrotation Yrotation Zrotation
	JOINT LeftUpLeg_virtual
	{
		OFFSET 0.000000 0.000000 0.000000
		CHANNELS 3 Xrotation Yrotation Zrotation
		JOINT LeftUpLeg
		{
			OFFSET 18.735201 -5.666702 -4.541200
			CHANNELS 3 Xrotation Yrotation Zrotation
			JOINT LeftLeg
			{
				OFFSET -0.021200 -31.938179 0.493100
				CHANNELS 3 Xrotation Yrotation Zrotation
				JOINT LeftFoot
				{
					OFFSET 0.021200 -31.938179 -4.336299
					CHANNELS 3 Xrotation Yrotation Zrotation
					JOINT LeftToeBase
					{
						OFFSET 0.943001 -26.722000 15.023500
						CHANNELS 3 Xrotation Yrotation Zrotation
						End Site
						{
							OFFSET 0 0 0
						}
					}
				}
			}
		}
	}
	JOINT RightUpLeg_virtual
	{
		OFFSET 0.000000 0.000000 0.000000
		CHANNELS 3 Xrotation Yrotation Zrotation
		JOINT RightUpLeg
		{
			OFFSET -18.735201 -5.666702 -4.541200
			CHANNELS 3 Xrotation Yrotation Zrotation
			JOINT RightLeg
			{
				OFFSET 0.018946 -31.938133 0.493100
				CHANNELS 3 Xrotation Yrotation Zrotation
				JOINT RightFoot
				{
					OFFSET -0.018946 -31.938126 -4.336299
					CHANNELS 3 Xrotation Yrotation Zrotation
					JOINT RightToeBase
					{
						OFFSET -0.943001 -26.722004 15.023500
						CHANNELS 3 Xrotation Yrotation Zrotation
						End Site
						{
							OFFSET 0 0 0
						}
					}
				}
			}
		}
	}
	JOINT Hips_virtual
	{
		OFFSET 0.000000 0.000000 0.000000
		CHANNELS 3 Xrotation Yrotation Zrotation
		JOINT Hips
		{
			OFFSET -0.000000 -0.000000 -0.000000
			CHANNELS 3 Xrotation Yrotation Zrotation
			JOINT Spine
			{
				OFFSET 0.000000 10.199997 -0.299500
				CHANNELS 3 Xrotation Yrotation Zrotation
				JOINT Spine1
				{
					OFFSET 0.000000 11.900002 -1.516600
					CHANNELS 3 Xrotation Yrotation Zrotation
					JOINT Spine2
					{
						OFFSET 0.000000 13.600006 -2.842500
						CHANNELS 3 Xrotation Yrotation Zrotation
						JOINT Neck_virtual
						{
							OFFSET 0.000000 0.000000 0.000000
							CHANNELS 3 Xrotation Yrotation Zrotation
							JOINT Neck
							{
								OFFSET 0.000000 9.624100 -2.890100
								CHANNELS 3 Xrotation Yrotation Zrotation
								JOINT Head
								{
									OFFSET 0.000000 14.068802 -1.351900
									CHANNELS 3 Xrotation Yrotation Zrotation
									End Site
									{
										OFFSET 0 0 0
									}
								}
							}
						}
						JOINT LeftShoulder_virtual
						{
							OFFSET 0.000000 0.000000 0.000000
							CHANNELS 3 Xrotation Yrotation Zrotation
							JOINT LeftShoulder
							{
								OFFSET 15.263000 10.923401 -0.547700
								CHANNELS 3 Xrotation Yrotation Zrotation
								JOINT LeftArm
								{
									OFFSET 25.438599 -2.830597 -13.032500
									CHANNELS 3 Xrotation Yrotation Zrotation
									JOINT LeftForeArm
									{
										OFFSET 29.960503 0.000000 0.000000
										CHANNELS 3 Xrotation Yrotation Zrotation
										JOINT LeftHand
										{
											OFFSET 27.849251 0.000000 0.000000
											CHANNELS 3 Xrotation Yrotation Zrotation
											End Site
											{
												OFFSET 0 0 0
											}
										}
									}
								}
							}
						}
						JOINT RightShoulder_virtual
						{
							OFFSET 0.000000 0.000000 0.000000
							CHANNELS 3 Xrotation Yrotation Zrotation
							JOINT RightShoulder
							{
								OFFSET -15.263000 10.923401 -0.547700
								CHANNELS 3 Xrotation Yrotation Zrotation
								JOINT RightArm
								{
									OFFSET -25.438599 -2.830597 -13.032500
									CHANNELS 3 Xrotation Yrotation Zrotation
									JOINT RightForeArm
									{
										OFFSET -29.960503 0.000000 0.000000
										CHANNELS 3 Xrotation Yrotation Zrotation
										JOINT RightHand
										{
											OFFSET -27.849251 0.000000 0.000000
											CHANNELS 3 Xrotation Yrotation Zrotation
											End Site
											{
												OFFSET 0 0 0
											}
										}
									}
								}
							}
						}
					}
				}
			}
		}
	}
}
MOTION
Frames: 10
Frame Time: 0.03333333
0.293175 79.672119 4.069523 0.000000 0.000000 0.000000 11.724044 3.093529 -1.194441 -56.092351 1.313670 5.031148 78.892278 7.325946 -0.663510 -33.438513 5.765045 -5.746967 0.000000 0.000000 0.000000 11.724044 3.093529 -1.194441 -50.001694 -15.146380 -5.501630 76.678613 -8.363339 -4.618902 -39.141536 -10.472584 4.564332 0.000000 0.000000 0.000000 11.724044 3.093529 -1.194441 0.000001 0.000000 0.000000 9.929156 1.383498 1.115467 7.645337 0.753229 0.067568 0.000000 0.000000 0.000000 7.636951 0.840686 0.048856 -4.598235 -0.585318 2.974855 0.000000 0.000000 0.000000 7.636951 0.840686 0.048856 3.557358 -26.212548 4.772372 -62.403286 -21.804177 -66.738987 -179.999691 -70.549550 -179.999677 0.000000 0.000000 0.000000 7.636951 0.840686 0.048856 1.209610 13.189586 10.689360 -58.736813 43.251210 51.659859 -179.999732 73.628114 179.999718 0.000000 0.000000 0.000000 
0.295350 79.673279 4.072830 0.000000 0.000000 0.000000 11.746722 3.089302 -1.199775 -56.111384 1.306355 5.049113 78.894026 7.321886 -0.691939 -33.435774 5.762353 -5.734830 0.000000 0.000000 0.000000 11.746722 3.089302 -1.199775 -50.016061 -15.149385 -5.492437 76.663676 -8.370338 -4.626997 -39.133026 -10.472009 4.571937 0.000000 0.000000 0.000000 11.746722 3.089302 -1.199775 0.000000 0.000000 0.000000 9.920797 1.391640 1.106706 7.639427 0.760472 0.063173 0.000000 0.000000 0.000000 7.630971 0.847823 0.044426 -4.602212 -0.587724 2.980070 0.000000 0.000000 0.000000 7.630971 0.847823 0.044426 3.557360 -26.212548 4.772374 -62.419337 -21.858337 -66.778664 179.999964 -70.498617 179.999950 0.000000 0.000000 0.000000 7.630971 0.847823 0.044426 1.208781 13.185489 10.706561 -58.718487 43.222544 51.623174 179.999691 73.503600 -179.999663 0.000000 0.000000 0.000000 
0.298127 79.673431 4.076963 0.000000 0.000000 0.000000 11.767352 3.084140 -1.209043 -56.131038 1.294404 5.068980 78.904340 7.315161 -0.724377 -33.435422 5.771290 -5.718677 0.000000 0.000000 0.000000 11.767352 3.084140 -1.209043 -50.026467 -15.155650 -5.481550 76.648834 -8.376099 -4.633867 -39.125513 -10.471611 4.579295 0.000000 0.000000 0.000000 11.767352 3.084140 -1.209043 0.000000 0.000000 0.000000 9.912049 1.402311 1.099207 7.633174 0.769255 0.058698 0.000000 0.000000 0.000000 7.624632 0.856617 0.039881 -4.606034 -0.592502 2.989243 0.000000 0.000000 0.000000 7.624632 0.856617 0.039881 3.557353 -26.212552 4.772374 -62.439581 -21.913841 -66.819549 179.999950 -70.454207 179.999964 0.000000 0.000000 0.000000 7.624632 0.856617 0.039881 1.207720 13.175777 10.734721 -58.706862 43.206107 51.589655 179.999991 73.392760 179.999991 0.000000 0.000000 0.000000 
0.301835 79.672630 4.082037 0.000000 0.000000 0.000000 11.785795 3.077918 -1.221226 -56.150582 1.282857 5.089185 78.920780 7.306340 -0.754953 -33.437796 5.788582 -5.700053 0.000000 0.000000 0.000000 11.785795 3.077918 -1.221226 -50.033028 -15.163995 -5.470970 76.634565 -8.381084 -4.638233 -39.119143 -10.469496 4.586881 0.000000 0.000000 0.000000 11.785795 3.077918 -1.221226 0.000000 0.000000 0.000000 9.903063 1.416033 1.092593 7.626654 0.780095 0.054114 0.000000 0.000000 0.000000 7.617964 0.867543 0.035189 -4.610726 -0.599759 3.001802 0.000000 0.000000 0.000000 7.617964 0.867543 0.035189 3.557360 -26.212548 4.772374 -62.470372 -21.974023 -66.864519 179.999855 -70.420248 179.999882 0.000000 0.000000 0.000000 7.617964 0.867543 0.035189 1.206694 13.162148 10.768369 -58.707634 43.191159 51.562727 -179.999267 73.292943 179.999267 0.000000 0.000000 0.000000 
0.306879 79.671280 4.088089 0.000000 0.000000 0.000000 11.803195 3.070221 -1.234621 -56.168515 1.277280 5.107850 78.938969 7.296530 -0.777686 -33.445210 5.809138 -5.681138 0.000000 0.000000 0.000000 11.803195 3.070221 -1.234621 -50.037710 -15.172461 -5.463099 76.620953 -8.386222 -4.639217 -39.113980 -10.463520 4.595363 0.000000 0.000000 0.000000 11.803195 3.070221 -1.234621 -0.000001 0.000000 0.000000 9.894267 1.432610 1.086064 7.619997 0.793058 0.049376 0.000000 0.000000 0.000000 7.611148 0.880648 0.030305 -4.617394 -0.608905 3.016587 0.000000 0.000000 0.000000 7.611148 0.880648 0.030305 3.557359 -26.212552 4.772374 -62.514167 -22.042340 -66.916053 179.999814 -70.391171 179.999827 0.000000 0.000000 0.000000 7.611148 0.880648 0.030305 1.205947 13.146154 10.801877 -58.722681 43.168561 51.544081 179.999896 73.190552 -179.999909 0.000000 0.000000 0.000000 
0.313442 79.670120 4.095045 0.000000 0.000000 0.000000 11.821166 3.060553 -1.247524 -56.184737 1.280919 5.123464 78.954221 7.287316 -0.789105 -33.456196 5.827877 -5.663777 0.000000 0.000000 0.000000 11.821166 3.060553 -1.247524 -50.043010 -15.179390 -5.459678 76.607866 -8.392066 -4.636571 -39.108885 -10.452134 4.605407 0.000000 0.000000 0.000000 11.821166 3.060553 -1.247524 0.000000 0.000000 0.000000 9.885897 1.451015 1.078951 7.613310 0.807592 0.044600 0.000000 0.000000 0.000000 7.604239 0.895362 0.025347 -4.625992 -0.618574 3.031963 0.000000 0.000000 0.000000 7.604239 0.895362 0.025347 3.557355 -26.212548 4.772374 -62.567244 -22.118504 -66.973454 179.999991 -70.357205 -180.000005 0.000000 0.000000 0.000000 7.604239 0.895362 0.025347 1.205645 13.127821 10.832412 -58.749380 43.137982 51.533904 -179.999800 73.073400 179.999786 0.000000 0.000000 0.000000 
0.321579 79.669640 4.102766 0.000000 0.000000 0.000000 11.840374 3.048690 -1.258800 -56.197656 1.293141 5.135244 78.963687 7.279922 -0.790103 -33.471964 5.841928 -5.648990 0.000000 0.000000 0.000000 11.840374 3.048690 -1.258800 -50.049967 -15.183712 -5.461135 76.593960 -8.398874 -4.631071 -39.102160 -10.435174 4.617461 0.000000 0.000000 0.000000 11.840374 3.048690 -1.258800 0.000000 0.000000 0.000000 9.877908 1.469681 1.071156 7.606520 0.822609 0.040046 0.000000 0.000000 0.000000 7.597282 0.910607 0.020585 -4.635293 -0.626971 3.046153 0.000000 0.000000 0.000000 7.597282 0.910607 0.020585 3.557355 -26.212553 4.772372 -62.621012 -22.195912 -67.031251 -179.999991 -70.314052 179.999991 0.000000 0.000000 0.000000 7.597282 0.910607 0.020585 1.205923 13.106003 10.860521 -58.781926 43.109094 51.531240 179.999691 72.944494 -179.999704 0.000000 0.000000 0.000000 
0.331100 79.670105 4.111116 0.000000 0.000000 0.000000 11.860024 3.034950 -1.267901 -56.206153 1.309636 5.143446 78.967034 7.274809 -0.785773 -33.490419 5.850600 -5.636530 0.000000 0.000000 0.000000 11.860024 3.034950 -1.267901 -50.057879 -15.184899 -5.466289 76.579644 -8.406389 -4.624200 -39.094405 -10.414706 4.631528 0.000000 0.000000 0.000000 11.860024 3.034950 -1.267901 -0.000001 0.000000 0.000000 9.870083 1.487056 1.062940 7.599645 0.836913 0.035906 0.000000 0.000000 0.000000 7.590173 0.925186 0.016228 -4.643199 -0.632443 3.057738 0.000000 0.000000 0.000000 7.590173 0.925186 0.016228 3.557357 -26.212552 4.772374 -62.665968 -22.262481 -67.080333 179.999909 -70.269191 179.999909 0.000000 0.000000 0.000000 7.590173 0.925186 0.016228 1.206671 13.079751 10.888411 -58.813721 43.096410 51.534119 179.999950 72.827234 -179.999950 0.000000 0.000000 0.000000 
0.341574 79.671463 4.119955 0.000000 0.000000 0.000000 11.877905 3.020170 -1.274626 -56.209274 1.324610 5.149073 78.966713 7.271934 -0.783046 -33.510008 5.854676 -5.625459 0.000000 0.000000 0.000000 11.877905 3.020170 -1.274626 -50.064177 -15.182459 -5.472663 76.565123 -8.413598 -4.618024 -39.086055 -10.394653 4.647121 0.000000 0.000000 0.000000 11.877905 3.020170 -1.274626 -0.000001 0.000000 0.000000 9.862381 1.502107 1.054630 7.592695 0.849621 0.032110 0.000000 0.000000 0.000000 7.583051 0.938222 0.012215 -4.647982 -0.634089 3.065895 0.000000 0.000000 0.000000 7.583051 0.938222 0.012215 3.557355 -26.212545 4.772372 -62.695980 -22.305528 -67.112025 179.999868 -70.240354 179.999855 0.000000 0.000000 0.000000 7.583051 0.938222 0.012215 1.207701 13.049737 10.917853 -58.840331 43.111013 51.540170 179.999623 72.756172 -179.999650 0.000000 0.000000 0.000000 
0.352529 79.673416 4.129322 0.000000 0.000000 0.000000 11.891785 3.005367 -1.278893 -56.205671 1.333863 5.153419 78.964760 7.270678 -0.787561 -33.529453 5.855043 -5.614804 0.000000 0.000000 0.000000 11.891785 3.005367 -1.278893 -50.066786 -15.176390 -5.477514 76.551538 -8.419727 -4.615021 -39.077848 -10.379676 4.663607 0.000000 0.000000 0.000000 11.891785 3.005367 -1.278893 0.000001 0.000000 0.000000 9.854825 1.514523 1.046407 7.585858 0.860358 0.028347 0.000000 0.000000 0.000000 7.576016 0.949324 0.008249 -4.649052 -0.632030 3.070584 0.000000 0.000000 0.000000 7.576016 0.949324 0.008249 3.557360 -26.212548 4.772374 -62.710330 -22.317869 -67.122058 179.999827 -70.246747 179.999800 0.000000 0.000000 0.000000 7.576016 0.949324 0.008249 1.208773 13.018571 10.948938 -58.860139 43.154952 51.546099 -179.999896 72.758938 179.999896 0.000000 0.000000 0.000000 
